<svg xmlns="http://www.w3.org/2000/svg" viewBox="0 0 24 24" width="24" height="24" fill="none" stroke="currentColor" stroke-width="1.5" stroke-linecap="round" stroke-linejoin="round">
  <!-- Left hemisphere -->
  <path d="M12 5C9.5 4.8 7 6.2 5.8 8.2C4.2 8.8 3 10.4 3 12.2C3 14 4 15.5 5.5 16.2C5.8 17.8 7.2 19 8.8 19C9.8 19 10.7 18.5 11.3 17.8"/>
  <!-- Right hemisphere -->
  <path d="M12 5C14.5 4.8 17 6.2 18.2 8.2C19.8 8.8 21 10.4 21 12.2C21 14 20 15.5 18.5 16.2C18.2 17.8 16.8 19 15.2 19C14.2 19 13.3 18.5 12.7 17.8"/>
  <!-- Interhemispheric fissure (top only) -->
  <path d="M12 5C12 5 12 8.5 12 10.5"/>
  <!-- Left gyri — organic C-curves -->
  <path d="M6.5 10C7.2 9.4 8.4 9.6 9.2 10.4"/>
  <path d="M6 13.2C7 12.6 8.4 12.9 9 14"/>
  <!-- Right gyri — mirror -->
  <path d="M17.5 10C16.8 9.4 15.6 9.6 14.8 10.4"/>
  <path d="M18 13.2C17 12.6 15.6 12.9 15 14"/>
  <!-- Cerebellum hint -->
  <path d="M9.5 18.8C10.3 19.6 11 20 12 20C13 20 13.7 19.6 14.5 18.8"/>
</svg>
